{
    "asset" : {
        "generator" : "Khronos glTF Blender I/O v1.0.5",
        "version" : "2.0"
    },
    "scene" : 0,
    "scenes" : [
        {
            "name" : "Scene",
            "nodes" : [
                0,
                1,
                2,
                3,
                4,
                5,
                6,
                7
            ]
        }
    ],
    "nodes" : [
        {
            "mesh" : 0,
            "name" : "Cube"
        },
        {
            "name" : "Light",
            "rotation" : [
                0.16907575726509094,
                0.7558803558349609,
                -0.27217137813568115,
                0.570947527885437
            ],
            "translation" : [
                4.076245307922363,
                5.903861999511719,
                -1.0054539442062378
            ]
        },
        {
            "name" : "Camera",
            "rotation" : [
                0.483536034822464,
                0.33687159419059753,
                -0.20870360732078552,
                0.7804827094078064
            ],
            "translation" : [
                7.358891487121582,
                4.958309173583984,
                6.925790786743164
            ]
        },
        {
            "mesh" : 1,
            "name" : "Cube.001",
            "rotation" : [
                0.7071068286895752,
                0,
                0,
                0.7071067094802856
            ],
            "scale" : [
                0.7926990985870361,
                0.7926990985870361,
                0.7926990985870361
            ],
            "translation" : [
                0.04771995544433594,
                -0.10563771426677704,
                1.0535696744918823
            ]
        },
        {
            "mesh" : 2,
            "name" : "Plane",
            "rotation" : [
                0.7071068286895752,
                0,
                0,
                0.7071067094802856
            ],
            "scale" : [
                0.7926990985870361,
                0.7926990985870361,
                0.7926990985870361
            ],
            "translation" : [
                0.04771995544433594,
                -0.10563771426677704,
                1.0535696744918823
            ]
        },
        {
            "mesh" : 3,
            "name" : "Cylinder",
            "rotation" : [
                0.7071068286895752,
                0,
                0,
                0.7071067094802856
            ],
            "scale" : [
                0.8079093098640442,
                0.8079093098640442,
                0.4626016318798065
            ],
            "translation" : [
                -0.0029904767870903015,
                0.131182461977005,
                1.0635716915130615
            ]
        },
        {
            "mesh" : 4,
            "name" : "Plane.001_Plane.002",
            "rotation" : [
                0.7071068286895752,
                0,
                0,
                0.7071067094802856
            ],
            "scale" : [
                0.7926990985870361,
                0.7926990985870361,
                0.7926990985870361
            ],
            "translation" : [
                0.04771995544433594,
                -0.10563771426677704,
                1.0535696744918823
            ]
        },
        {
            "mesh" : 5,
            "name" : "Plane.002_Plane.003",
            "rotation" : [
                0.7071068286895752,
                0,
                0,
                0.7071067094802856
            ],
            "scale" : [
                0.7926990985870361,
                0.7926990985870361,
                0.7926990985870361
            ],
            "translation" : [
                0.04771995544433594,
                -0.10563771426677704,
                1.0535696744918823
            ]
        }
    ],
    "materials" : [
        {
            "doubleSided" : true,
            "name" : "Material",
            "pbrMetallicRoughness" : {
                "baseColorFactor" : [
                    0.8069522380828857,
                    0.6104959845542908,
                    0.3915725648403168,
                    1
                ],
                "metallicFactor" : 0,
                "roughnessFactor" : 0.4000000059604645
            }
        },
        {
            "doubleSided" : true,
            "name" : "Material.001",
            "pbrMetallicRoughness" : {
                "baseColorFactor" : [
                    1,
                    1,
                    1,
                    1
                ],
                "metallicFactor" : 0,
                "roughnessFactor" : 0.4000000059604645
            }
        },
        {
            "doubleSided" : true,
            "name" : "Material.002",
            "pbrMetallicRoughness" : {
                "baseColorFactor" : [
                    0.0042420001700520515,
                    0.0042420001700520515,
                    0.0042420001700520515,
                    1
                ],
                "metallicFactor" : 0,
                "roughnessFactor" : 1
            }
        },
        {
            "doubleSided" : true,
            "name" : "Material.003",
            "pbrMetallicRoughness" : {
                "baseColorFactor" : [
                    1,
                    1,
                    1,
                    1
                ],
                "metallicFactor" : 0,
                "roughnessFactor" : 0.5
            }
        },
        {
            "doubleSided" : true,
            "name" : "Material.004",
            "pbrMetallicRoughness" : {
                "baseColorFactor" : [
                    0.02197900041937828,
                    0.02197900041937828,
                    0.02197900041937828,
                    1
                ],
                "metallicFactor" : 0.699999988079071,
                "roughnessFactor" : 0.5
            }
        }
    ],
    "meshes" : [
        {
            "name" : "Cube",
            "primitives" : [
                {
                    "attributes" : {
                        "POSITION" : 0,
                        "NORMAL" : 1,
                        "TEXCOORD_0" : 2
                    },
                    "indices" : 3,
                    "material" : 0
                }
            ]
        },
        {
            "name" : "Cube.001",
            "primitives" : [
                {
                    "attributes" : {
                        "POSITION" : 4,
                        "NORMAL" : 5,
                        "TEXCOORD_0" : 6
                    },
                    "indices" : 7,
                    "material" : 1
                }
            ]
        },
        {
            "name" : "Plane",
            "primitives" : [
                {
                    "attributes" : {
                        "POSITION" : 8,
                        "NORMAL" : 9,
                        "TEXCOORD_0" : 10
                    },
                    "indices" : 7,
                    "material" : 2
                }
            ]
        },
        {
            "name" : "Cylinder",
            "primitives" : [
                {
                    "attributes" : {
                        "POSITION" : 11,
                        "NORMAL" : 12,
                        "TEXCOORD_0" : 13
                    },
                    "indices" : 14,
                    "material" : 3
                }
            ]
        },
        {
            "name" : "Plane.001_Plane.002",
            "primitives" : [
                {
                    "attributes" : {
                        "POSITION" : 15,
                        "NORMAL" : 16,
                        "TEXCOORD_0" : 17
                    },
                    "indices" : 7,
                    "material" : 2
                }
            ]
        },
        {
            "name" : "Plane.002_Plane.003",
            "primitives" : [
                {
                    "attributes" : {
                        "POSITION" : 18,
                        "NORMAL" : 19,
                        "TEXCOORD_0" : 20
                    },
                    "indices" : 21,
                    "material" : 4
                }
            ]
        }
    ],
    "accessors" : [
        {
            "bufferView" : 0,
            "componentType" : 5126,
            "count" : 2606,
            "max" : [
                1.9305801391601562,
                1.412377119064331,
                9.118715286254883
            ],
            "min" : [
                -1.0809648036956787,
                -0.6311873197555542,
                -3.3286168575286865
            ],
            "type" : "VEC3"
        },
        {
            "bufferView" : 1,
            "componentType" : 5126,
            "count" : 2606,
            "type" : "VEC3"
        },
        {
            "bufferView" : 2,
            "componentType" : 5126,
            "count" : 2606,
            "type" : "VEC2"
        },
        {
            "bufferView" : 3,
            "componentType" : 5123,
            "count" : 3804,
            "type" : "SCALAR"
        },
        {
            "bufferView" : 4,
            "componentType" : 5126,
            "count" : 24,
            "max" : [
                0.6189299821853638,
                0.46792998909950256,
                -0.8422420024871826
            ],
            "min" : [
                -0.6496719717979431,
                -0.41513198614120483,
                -0.949537992477417
            ],
            "type" : "VEC3"
        },
        {
            "bufferView" : 5,
            "componentType" : 5126,
            "count" : 24,
            "type" : "VEC3"
        },
        {
            "bufferView" : 6,
            "componentType" : 5126,
            "count" : 24,
            "type" : "VEC2"
        },
        {
            "bufferView" : 7,
            "componentType" : 5123,
            "count" : 36,
            "type" : "SCALAR"
        },
        {
            "bufferView" : 8,
            "componentType" : 5126,
            "count" : 24,
            "max" : [
                -0.07793200016021729,
                -0.4123710095882416,
                -0.856751024723053
            ],
            "min" : [
                -0.34238201379776,
                -0.44884100556373596,
                -0.9281229972839355
            ],
            "type" : "VEC3"
        },
        {
            "bufferView" : 9,
            "componentType" : 5126,
            "count" : 24,
            "type" : "VEC3"
        },
        {
            "bufferView" : 10,
            "componentType" : 5126,
            "count" : 24,
            "type" : "VEC2"
        },
        {
            "bufferView" : 11,
            "componentType" : 5126,
            "count" : 380,
            "max" : [
                1,
                0.32834699749946594,
                1
            ],
            "min" : [
                -1,
                -0.32834699749946594,
                -0.9328470230102539
            ],
            "type" : "VEC3"
        },
        {
            "bufferView" : 12,
            "componentType" : 5126,
            "count" : 380,
            "type" : "VEC3"
        },
        {
            "bufferView" : 13,
            "componentType" : 5126,
            "count" : 380,
            "type" : "VEC2"
        },
        {
            "bufferView" : 14,
            "componentType" : 5123,
            "count" : 762,
            "type" : "SCALAR"
        },
        {
            "bufferView" : 15,
            "componentType" : 5126,
            "count" : 24,
            "max" : [
                0.3599590063095093,
                -0.4123710095882416,
                -0.856751024723053
            ],
            "min" : [
                0.09550900012254715,
                -0.44884100556373596,
                -0.9281229972839355
            ],
            "type" : "VEC3"
        },
        {
            "bufferView" : 16,
            "componentType" : 5126,
            "count" : 24,
            "type" : "VEC3"
        },
        {
            "bufferView" : 17,
            "componentType" : 5126,
            "count" : 24,
            "type" : "VEC2"
        },
        {
            "bufferView" : 18,
            "componentType" : 5126,
            "count" : 4,
            "max" : [
                0.6012700200080872,
                0.44493699073791504,
                -0.9525089859962463
            ],
            "min" : [
                -0.6271479725837708,
                -0.39965900778770447,
                -0.9525089859962463
            ],
            "type" : "VEC3"
        },
        {
            "bufferView" : 19,
            "componentType" : 5126,
            "count" : 4,
            "type" : "VEC3"
        },
        {
            "bufferView" : 20,
            "componentType" : 5126,
            "count" : 4,
            "type" : "VEC2"
        },
        {
            "bufferView" : 21,
            "componentType" : 5123,
            "count" : 6,
            "type" : "SCALAR"
        }
    ],
    "bufferViews" : [
        {
            "buffer" : 0,
            "byteLength" : 31272,
            "byteOffset" : 0
        },
        {
            "buffer" : 0,
            "byteLength" : 31272,
            "byteOffset" : 31272
        },
        {
            "buffer" : 0,
            "byteLength" : 20848,
            "byteOffset" : 62544
        },
        {
            "buffer" : 0,
            "byteLength" : 7608,
            "byteOffset" : 83392
        },
        {
            "buffer" : 0,
            "byteLength" : 288,
            "byteOffset" : 91000
        },
        {
            "buffer" : 0,
            "byteLength" : 288,
            "byteOffset" : 91288
        },
        {
            "buffer" : 0,
            "byteLength" : 192,
            "byteOffset" : 91576
        },
        {
            "buffer" : 0,
            "byteLength" : 72,
            "byteOffset" : 91768
        },
        {
            "buffer" : 0,
            "byteLength" : 288,
            "byteOffset" : 91840
        },
        {
            "buffer" : 0,
            "byteLength" : 288,
            "byteOffset" : 92128
        },
        {
            "buffer" : 0,
            "byteLength" : 192,
            "byteOffset" : 92416
        },
        {
            "buffer" : 0,
            "byteLength" : 4560,
            "byteOffset" : 92608
        },
        {
            "buffer" : 0,
            "byteLength" : 4560,
            "byteOffset" : 97168
        },
        {
            "buffer" : 0,
            "byteLength" : 3040,
            "byteOffset" : 101728
        },
        {
            "buffer" : 0,
            "byteLength" : 1524,
            "byteOffset" : 104768
        },
        {
            "buffer" : 0,
            "byteLength" : 288,
            "byteOffset" : 106292
        },
        {
            "buffer" : 0,
            "byteLength" : 288,
            "byteOffset" : 106580
        },
        {
            "buffer" : 0,
            "byteLength" : 192,
            "byteOffset" : 106868
        },
        {
            "buffer" : 0,
            "byteLength" : 48,
            "byteOffset" : 107060
        },
        {
            "buffer" : 0,
            "byteLength" : 48,
            "byteOffset" : 107108
        },
        {
            "buffer" : 0,
            "byteLength" : 32,
            "byteOffset" : 107156
        },
        {
            "buffer" : 0,
            "byteLength" : 12,
            "byteOffset" : 107188
        }
    ],
    "buffers" : [
        {
            "byteLength" : 107200,
            "uri" : "HandWithSecondWatch.bin"
        }
    ]
}
