{
    "asset" : {
        "generator" : "Khronos glTF Blender I/O v1.0.5",
        "version" : "2.0"
    },
    "scene" : 0,
    "scenes" : [
        {
            "name" : "Scene",
            "nodes" : [
                0,
                1,
                2,
                3,
                4,
                5,
                6,
                7,
                8,
                9,
                10
            ]
        }
    ],
    "nodes" : [
        {
            "mesh" : 0,
            "name" : "Cube"
        },
        {
            "name" : "Light",
            "rotation" : [
                -0.31260809302330017,
                -0.12290973961353302,
                0.07028549909591675,
                -0.9392706155776978
            ],
            "scale" : [
                0.35076001286506653,
                0.35075992345809937,
                0.35076001286506653
            ],
            "translation" : [
                -1.6050224304199219,
                2.0710337162017822,
                0.7780542373657227
            ]
        },
        {
            "name" : "Camera",
            "rotation" : [
                0.483536034822464,
                0.33687159419059753,
                -0.20870360732078552,
                0.7804827094078064
            ],
            "translation" : [
                7.358891487121582,
                4.958309173583984,
                6.925790786743164
            ]
        },
        {
            "mesh" : 1,
            "name" : "Cylinder",
            "rotation" : [
                -0.49579736590385437,
                0.5041676163673401,
                -0.5041676759719849,
                -0.4957973062992096
            ],
            "scale" : [
                0.33847084641456604,
                0.33505335450172424,
                0.2137458324432373
            ],
            "translation" : [
                -0.021621491760015488,
                0.1402624547481537,
                0.944147527217865
            ]
        },
        {
            "mesh" : 2,
            "name" : "Cylinder.001_Cylinder.002",
            "rotation" : [
                -0.49579736590385437,
                0.5041676163673401,
                -0.5041676759719849,
                -0.4957973062992096
            ],
            "scale" : [
                0.35076001286506653,
                0.35076001286506653,
                0.35076001286506653
            ],
            "translation" : [
                0.036475226283073425,
                -0.14947544038295746,
                0.9496915340423584
            ]
        },
        {
            "mesh" : 3,
            "name" : "Circle.001",
            "rotation" : [
                -0.49579736590385437,
                0.5041676163673401,
                -0.5041676759719849,
                -0.4957973062992096
            ],
            "scale" : [
                0.35076001286506653,
                0.35076001286506653,
                0.35076001286506653
            ],
            "translation" : [
                0.036475226283073425,
                -0.14947544038295746,
                0.9496915340423584
            ]
        },
        {
            "mesh" : 4,
            "name" : "Circle.002",
            "rotation" : [
                -0.49579736590385437,
                0.5041676163673401,
                -0.5041676759719849,
                -0.4957973062992096
            ],
            "scale" : [
                0.35076001286506653,
                0.35076001286506653,
                0.35076001286506653
            ],
            "translation" : [
                0.036475226283073425,
                -0.14947544038295746,
                0.9496915340423584
            ]
        },
        {
            "mesh" : 5,
            "name" : "Plane",
            "rotation" : [
                -0.49579736590385437,
                0.5041676163673401,
                -0.5041676759719849,
                -0.4957973062992096
            ],
            "scale" : [
                0.35076001286506653,
                0.35076001286506653,
                0.35076001286506653
            ],
            "translation" : [
                0.036475226283073425,
                -0.14947544038295746,
                0.9496915340423584
            ]
        },
        {
            "mesh" : 6,
            "name" : "Plane.001",
            "rotation" : [
                -0.49579736590385437,
                0.5041676163673401,
                -0.5041676759719849,
                -0.4957973062992096
            ],
            "scale" : [
                0.35076001286506653,
                0.35076001286506653,
                0.35076001286506653
            ],
            "translation" : [
                0.036475226283073425,
                -0.14947544038295746,
                0.9496915340423584
            ]
        },
        {
            "mesh" : 7,
            "name" : "Cylinder.002_Cylinder.004",
            "rotation" : [
                -0.49579736590385437,
                0.5041676163673401,
                -0.5041676759719849,
                -0.4957973062992096
            ],
            "scale" : [
                0.35076001286506653,
                0.35076001286506653,
                0.35076001286506653
            ],
            "translation" : [
                0.036475226283073425,
                -0.14947544038295746,
                0.9496915340423584
            ]
        },
        {
            "mesh" : 8,
            "name" : "Circle.003",
            "rotation" : [
                -0.49579736590385437,
                0.5041676163673401,
                -0.5041676759719849,
                -0.4957973062992096
            ],
            "scale" : [
                0.35076001286506653,
                0.35076001286506653,
                0.35076001286506653
            ],
            "translation" : [
                0.036475226283073425,
                -0.14947544038295746,
                0.9496915340423584
            ]
        }
    ],
    "materials" : [
        {
            "doubleSided" : true,
            "name" : "Material",
            "pbrMetallicRoughness" : {
                "baseColorFactor" : [
                    0.8069522380828857,
                    0.6104959845542908,
                    0.3915725648403168,
                    1
                ],
                "metallicFactor" : 0,
                "roughnessFactor" : 0.4000000059604645
            }
        },
        {
            "doubleSided" : true,
            "name" : "Material.003",
            "pbrMetallicRoughness" : {
                "baseColorFactor" : [
                    0.07812199741601944,
                    0.10423699766397476,
                    0.15743200480937958,
                    1
                ],
                "metallicFactor" : 0,
                "roughnessFactor" : 0.5
            }
        },
        {
            "doubleSided" : true,
            "name" : "Material.002",
            "pbrMetallicRoughness" : {
                "baseColorFactor" : [
                    0.0020630001090466976,
                    0.0015150000108405948,
                    0.0016749999485909939,
                    1
                ],
                "metallicFactor" : 0,
                "roughnessFactor" : 0.5
            }
        },
        {
            "doubleSided" : true,
            "name" : "None",
            "pbrMetallicRoughness" : {
                "baseColorFactor" : [
                    0.800000011920929,
                    0.800000011920929,
                    0.800000011920929,
                    1
                ],
                "metallicFactor" : 0,
                "roughnessFactor" : 0.2546440064907074
            }
        },
        {
            "doubleSided" : true,
            "name" : "Material.004",
            "pbrMetallicRoughness" : {
                "baseColorFactor" : [
                    0.04320700094103813,
                    0.1625330001115799,
                    0.800000011920929,
                    1
                ],
                "metallicFactor" : 0.53125,
                "roughnessFactor" : 0.5
            }
        }
    ],
    "meshes" : [
        {
            "name" : "Cube",
            "primitives" : [
                {
                    "attributes" : {
                        "POSITION" : 0,
                        "NORMAL" : 1,
                        "TEXCOORD_0" : 2
                    },
                    "indices" : 3,
                    "material" : 0
                }
            ]
        },
        {
            "name" : "Cylinder",
            "primitives" : [
                {
                    "attributes" : {
                        "POSITION" : 4,
                        "NORMAL" : 5,
                        "TEXCOORD_0" : 6
                    },
                    "indices" : 7,
                    "material" : 1
                }
            ]
        },
        {
            "name" : "Cylinder.001_Cylinder.002",
            "primitives" : [
                {
                    "attributes" : {
                        "POSITION" : 8,
                        "NORMAL" : 9,
                        "TEXCOORD_0" : 10
                    },
                    "indices" : 11,
                    "material" : 1
                }
            ]
        },
        {
            "name" : "Circle.001",
            "primitives" : [
                {
                    "attributes" : {
                        "POSITION" : 12,
                        "NORMAL" : 13,
                        "TEXCOORD_0" : 14
                    },
                    "indices" : 15,
                    "material" : 2
                }
            ]
        },
        {
            "name" : "Circle.002",
            "primitives" : [
                {
                    "attributes" : {
                        "POSITION" : 16,
                        "NORMAL" : 17,
                        "TEXCOORD_0" : 18
                    },
                    "indices" : 19,
                    "material" : 2
                }
            ]
        },
        {
            "name" : "Plane",
            "primitives" : [
                {
                    "attributes" : {
                        "POSITION" : 20,
                        "NORMAL" : 21,
                        "TEXCOORD_0" : 22
                    },
                    "indices" : 23,
                    "material" : 2
                }
            ]
        },
        {
            "name" : "Plane.001",
            "primitives" : [
                {
                    "attributes" : {
                        "POSITION" : 24,
                        "NORMAL" : 25,
                        "TEXCOORD_0" : 26
                    },
                    "indices" : 27,
                    "material" : 2
                }
            ]
        },
        {
            "name" : "Cylinder.002_Cylinder.004",
            "primitives" : [
                {
                    "attributes" : {
                        "POSITION" : 28,
                        "NORMAL" : 29,
                        "TEXCOORD_0" : 30
                    },
                    "indices" : 31,
                    "material" : 3
                }
            ]
        },
        {
            "name" : "Circle.003",
            "primitives" : [
                {
                    "attributes" : {
                        "POSITION" : 32,
                        "NORMAL" : 33,
                        "TEXCOORD_0" : 34
                    },
                    "indices" : 35,
                    "material" : 4
                }
            ]
        }
    ],
    "accessors" : [
        {
            "bufferView" : 0,
            "componentType" : 5126,
            "count" : 2606,
            "max" : [
                1.9305801391601562,
                1.412377119064331,
                9.118715286254883
            ],
            "min" : [
                -1.0809648036956787,
                -0.6311873197555542,
                -3.3286168575286865
            ],
            "type" : "VEC3"
        },
        {
            "bufferView" : 1,
            "componentType" : 5126,
            "count" : 2606,
            "type" : "VEC3"
        },
        {
            "bufferView" : 2,
            "componentType" : 5126,
            "count" : 2606,
            "type" : "VEC2"
        },
        {
            "bufferView" : 3,
            "componentType" : 5123,
            "count" : 3804,
            "type" : "SCALAR"
        },
        {
            "bufferView" : 4,
            "componentType" : 5126,
            "count" : 384,
            "max" : [
                0.7152040004730225,
                2.3543970584869385,
                2.3543970584869385
            ],
            "min" : [
                -0.7152040004730225,
                -2.3543970584869385,
                -2.3543970584869385
            ],
            "type" : "VEC3"
        },
        {
            "bufferView" : 5,
            "componentType" : 5126,
            "count" : 384,
            "type" : "VEC3"
        },
        {
            "bufferView" : 6,
            "componentType" : 5126,
            "count" : 384,
            "type" : "VEC2"
        },
        {
            "bufferView" : 7,
            "componentType" : 5123,
            "count" : 768,
            "type" : "SCALAR"
        },
        {
            "bufferView" : 8,
            "componentType" : 5126,
            "count" : 384,
            "max" : [
                1.2342610359191895,
                1.2317479848861694,
                -2.227509021759033
            ],
            "min" : [
                -1.2295550107955933,
                -1.2320669889450073,
                -2.5232460498809814
            ],
            "type" : "VEC3"
        },
        {
            "bufferView" : 9,
            "componentType" : 5126,
            "count" : 384,
            "type" : "VEC3"
        },
        {
            "bufferView" : 10,
            "componentType" : 5126,
            "count" : 384,
            "type" : "VEC2"
        },
        {
            "bufferView" : 11,
            "componentType" : 5123,
            "count" : 756,
            "type" : "SCALAR"
        },
        {
            "bufferView" : 12,
            "componentType" : 5126,
            "count" : 192,
            "max" : [
                -1.0972349643707275,
                -0.3467859923839569,
                -2.2340428829193115
            ],
            "min" : [
                -1.2965610027313232,
                -0.6134080290794373,
                -2.4771909713745117
            ],
            "type" : "VEC3"
        },
        {
            "bufferView" : 13,
            "componentType" : 5126,
            "count" : 192,
            "type" : "VEC3"
        },
        {
            "bufferView" : 14,
            "componentType" : 5126,
            "count" : 192,
            "type" : "VEC2"
        },
        {
            "bufferView" : 15,
            "componentType" : 5123,
            "count" : 372,
            "type" : "SCALAR"
        },
        {
            "bufferView" : 16,
            "componentType" : 5126,
            "count" : 192,
            "max" : [
                -1.0779390335083008,
                0.6310189962387085,
                -2.256916046142578
            ],
            "min" : [
                -1.2723679542541504,
                0.36446601152420044,
                -2.500385046005249
            ],
            "type" : "VEC3"
        },
        {
            "bufferView" : 17,
            "componentType" : 5126,
            "count" : 192,
            "type" : "VEC3"
        },
        {
            "bufferView" : 18,
            "componentType" : 5126,
            "count" : 192,
            "type" : "VEC2"
        },
        {
            "bufferView" : 19,
            "componentType" : 5123,
            "count" : 372,
            "type" : "SCALAR"
        },
        {
            "bufferView" : 20,
            "componentType" : 5126,
            "count" : 28,
            "max" : [
                0.04539699852466583,
                0.8259639739990234,
                -2.4280519485473633
            ],
            "min" : [
                -0.04313499853014946,
                0.01645199954509735,
                -2.4435830116271973
            ],
            "type" : "VEC3"
        },
        {
            "bufferView" : 21,
            "componentType" : 5126,
            "count" : 28,
            "type" : "VEC3"
        },
        {
            "bufferView" : 22,
            "componentType" : 5126,
            "count" : 28,
            "type" : "VEC2"
        },
        {
            "bufferView" : 23,
            "componentType" : 5123,
            "count" : 48,
            "type" : "SCALAR"
        },
        {
            "bufferView" : 24,
            "componentType" : 5126,
            "count" : 28,
            "max" : [
                0.38993099331855774,
                -0.00597700010985136,
                -2.4137508869171143
            ],
            "min" : [
                0.000522000016644597,
                -0.46054700016975403,
                -2.4245059490203857
            ],
            "type" : "VEC3"
        },
        {
            "bufferView" : 25,
            "componentType" : 5126,
            "count" : 28,
            "type" : "VEC3"
        },
        {
            "bufferView" : 26,
            "componentType" : 5126,
            "count" : 28,
            "type" : "VEC2"
        },
        {
            "bufferView" : 27,
            "componentType" : 5123,
            "count" : 48,
            "type" : "SCALAR"
        },
        {
            "bufferView" : 28,
            "componentType" : 5126,
            "count" : 192,
            "max" : [
                0.049295999109745026,
                0.049295999109745026,
                -2.348128080368042
            ],
            "min" : [
                -0.049295999109745026,
                -0.049295999109745026,
                -2.4467198848724365
            ],
            "type" : "VEC3"
        },
        {
            "bufferView" : 29,
            "componentType" : 5126,
            "count" : 192,
            "type" : "VEC3"
        },
        {
            "bufferView" : 30,
            "componentType" : 5126,
            "count" : 192,
            "type" : "VEC2"
        },
        {
            "bufferView" : 31,
            "componentType" : 5123,
            "count" : 372,
            "type" : "SCALAR"
        },
        {
            "bufferView" : 32,
            "componentType" : 5126,
            "count" : 32,
            "max" : [
                1.0267870426177979,
                1.0267870426177979,
                -2.405216932296753
            ],
            "min" : [
                -1.0267870426177979,
                -1.0267870426177979,
                -2.405216932296753
            ],
            "type" : "VEC3"
        },
        {
            "bufferView" : 33,
            "componentType" : 5126,
            "count" : 32,
            "type" : "VEC3"
        },
        {
            "bufferView" : 34,
            "componentType" : 5126,
            "count" : 32,
            "type" : "VEC2"
        },
        {
            "bufferView" : 35,
            "componentType" : 5123,
            "count" : 90,
            "type" : "SCALAR"
        }
    ],
    "bufferViews" : [
        {
            "buffer" : 0,
            "byteLength" : 31272,
            "byteOffset" : 0
        },
        {
            "buffer" : 0,
            "byteLength" : 31272,
            "byteOffset" : 31272
        },
        {
            "buffer" : 0,
            "byteLength" : 20848,
            "byteOffset" : 62544
        },
        {
            "buffer" : 0,
            "byteLength" : 7608,
            "byteOffset" : 83392
        },
        {
            "buffer" : 0,
            "byteLength" : 4608,
            "byteOffset" : 91000
        },
        {
            "buffer" : 0,
            "byteLength" : 4608,
            "byteOffset" : 95608
        },
        {
            "buffer" : 0,
            "byteLength" : 3072,
            "byteOffset" : 100216
        },
        {
            "buffer" : 0,
            "byteLength" : 1536,
            "byteOffset" : 103288
        },
        {
            "buffer" : 0,
            "byteLength" : 4608,
            "byteOffset" : 104824
        },
        {
            "buffer" : 0,
            "byteLength" : 4608,
            "byteOffset" : 109432
        },
        {
            "buffer" : 0,
            "byteLength" : 3072,
            "byteOffset" : 114040
        },
        {
            "buffer" : 0,
            "byteLength" : 1512,
            "byteOffset" : 117112
        },
        {
            "buffer" : 0,
            "byteLength" : 2304,
            "byteOffset" : 118624
        },
        {
            "buffer" : 0,
            "byteLength" : 2304,
            "byteOffset" : 120928
        },
        {
            "buffer" : 0,
            "byteLength" : 1536,
            "byteOffset" : 123232
        },
        {
            "buffer" : 0,
            "byteLength" : 744,
            "byteOffset" : 124768
        },
        {
            "buffer" : 0,
            "byteLength" : 2304,
            "byteOffset" : 125512
        },
        {
            "buffer" : 0,
            "byteLength" : 2304,
            "byteOffset" : 127816
        },
        {
            "buffer" : 0,
            "byteLength" : 1536,
            "byteOffset" : 130120
        },
        {
            "buffer" : 0,
            "byteLength" : 744,
            "byteOffset" : 131656
        },
        {
            "buffer" : 0,
            "byteLength" : 336,
            "byteOffset" : 132400
        },
        {
            "buffer" : 0,
            "byteLength" : 336,
            "byteOffset" : 132736
        },
        {
            "buffer" : 0,
            "byteLength" : 224,
            "byteOffset" : 133072
        },
        {
            "buffer" : 0,
            "byteLength" : 96,
            "byteOffset" : 133296
        },
        {
            "buffer" : 0,
            "byteLength" : 336,
            "byteOffset" : 133392
        },
        {
            "buffer" : 0,
            "byteLength" : 336,
            "byteOffset" : 133728
        },
        {
            "buffer" : 0,
            "byteLength" : 224,
            "byteOffset" : 134064
        },
        {
            "buffer" : 0,
            "byteLength" : 96,
            "byteOffset" : 134288
        },
        {
            "buffer" : 0,
            "byteLength" : 2304,
            "byteOffset" : 134384
        },
        {
            "buffer" : 0,
            "byteLength" : 2304,
            "byteOffset" : 136688
        },
        {
            "buffer" : 0,
            "byteLength" : 1536,
            "byteOffset" : 138992
        },
        {
            "buffer" : 0,
            "byteLength" : 744,
            "byteOffset" : 140528
        },
        {
            "buffer" : 0,
            "byteLength" : 384,
            "byteOffset" : 141272
        },
        {
            "buffer" : 0,
            "byteLength" : 384,
            "byteOffset" : 141656
        },
        {
            "buffer" : 0,
            "byteLength" : 256,
            "byteOffset" : 142040
        },
        {
            "buffer" : 0,
            "byteLength" : 180,
            "byteOffset" : 142296
        }
    ],
    "buffers" : [
        {
            "byteLength" : 142476,
            "uri" : "data:application/octet-stream;base64,"
        }
    ]
}
