<?xml version="1.0" encoding="UTF-8" standalone="no"?><!DOCTYPE svg PUBLIC "-//W3C//DTD SVG 1.1//EN" "http://www.w3.org/Graphics/SVG/1.1/DTD/svg11.dtd"><svg width="100%" height="100%" viewBox="0 0 700 700" version="1.1" xmlns="http://www.w3.org/2000/svg" xmlns:xlink="http://www.w3.org/1999/xlink" xml:space="preserve" xmlns:serif="http://www.serif.com/" style="fill-rule:evenodd;clip-rule:evenodd;stroke-linecap:round;stroke-linejoin:round;stroke-miterlimit:1.5;"><g><g><path d="M131.698,295.25l0,128l106,0l119,91" style="fill:none;stroke:#fff;stroke-width:26.73px;"/><path d="M131.698,404.75l0,-128l106,0l119,-91" style="fill:none;stroke:#fff;stroke-width:26.73px;"/><path d="M356.698,185.75l0,328.5" style="fill:none;stroke:#fff;stroke-width:26.73px;"/></g><path d="M519.294,224.55c31.501,36.091 49.822,80.849 48.981,129.023c-0.799,45.745 -18.757,87.809 -48.601,121.877" style="fill:none;stroke:#fff;stroke-width:26.73px;"/><path d="M467.005,247.303c23.649,29.459 37.376,66.016 36.689,105.386c-0.653,37.385 -14.206,71.782 -36.689,99.657" style="fill:none;stroke:#fff;stroke-width:26.73px;"/><path d="M415.681,287.324c16.75,18.005 26.505,40.322 26.086,64.331c-0.398,22.799 -9.912,43.752 -25.741,60.715" style="fill:none;stroke:#fff;stroke-width:26.73px;"/></g></svg>